<?xml version="1.0" encoding="UTF-8"?>
<svg id="Layer_2" data-name="Layer 2" xmlns="http://www.w3.org/2000/svg" viewBox="0 0 330.66 281.14">
  <defs>
    <style>
      .cls-1 {
        fill: #231f20;
      }
    </style>
  </defs>
  <g id="Layer_2-2" data-name="Layer 2">
    <g>
      <path class="cls-1" d="m119.99,233.95c-.57-.14-1.82,1.67-1.82,1.67-3.17,3.91-4.75,5.63-6.12,5.13-.68-.25-4.58-5.4-7.03-9.68-2.04-3.57-3.18-3.22-4.88-1.66-1.12,1.03-2.67,2.46-4.25,3.82v-9.62c0-.85-.83-1.46-1.64-1.21l-.84.26c-.97.3-1.63,1.2-1.63,2.21v11.54c-1.13.72-2.02,1.07-2.43.75-1.68-1.33-5.12-8.37-6.65-8.9-.98-.34-4.38.48-9.91,9.12-5.53,8.65-5.72,10.18-5.26,10.72.85.99,1.28.66,1.28.66l5.67-6.7c1.69-1.52,4.31.24,5.39,2.4l4.43,8.06c.6,1.05,1.96,1.38,2.97.72l4.49-3.06v9.44c0,.68.66,1.17,1.31.96l1.27-.39c.91-.28,1.53-1.13,1.53-2.08v-10.73l2.95-2c.34-.23.8-.18,1.08.13l6.05,6.71c1.11,1.11,2.56,2.31,3.47,1.03,2.36-3.29,7.7-10.48,9.83-13.95,2.83-4.6,1.28-5.25.71-5.39Z"/>
      <path class="cls-1" d="m328.76,273.76c-3.68,1.75-36.07,5.65-58.71-11.54-22.64-17.19-44.33-48.34-47.46-49.04,0,0-.02,0-.03,0,.63-.13,1.25-.27,1.87-.44,21.57-5.9,30.99-27.01,27.39-45.6-1.26-6.52-3.03-16.5-17.65-22.91-.05-.02-.1-.04-.15-.06,7.02-18.51,57.23-124.66,61.53-129.92,4.49-5.49,14.23-6.44,22.74-5.98,1.6.09,1.49-1.41.3-2.23s-16.2.12-20.96.94c-4.76.82-9.61.71-12.66.63-5.13-.15-13.58.16-13.45.45,0,0-.28.72.2,1.29s4.49.62,5.93.72c1.44.1,3.93,2.59,3.35,5.85-.25,1.41-8.27,22.59-17.61,47.1-9.93,26.05-24.11,54.63-29.15,64.56-4.94-8.23-19.81-33.71-30.38-59.05,10.64-21.06,19.06-40.35,19.06-48.62C222.92-2.55,205-.04,201.66.2c-21.26,1.57-24.8,20.08-24.8,27.76,0,13.98,6.29,32.4,14.56,50.61-.05.24-.1.47-.16.71-10.95,20.96-22.66,41.41-27.2,49.25-.43-.05-.75-.31-.83-.5-2.38-5.4-12.06-27.52-20.32-51.63-9.33-27.22-24.71-64.31-42.88-67.39-21.05-3.56-40.29-.23-41.83.92-1.54,1.16-.58,2.7-.58,2.7,0,0,19.64-4.76,32.35,3.09,12.15,7.5,30.08,43.78,39.02,68.38,7.28,20.03,26.41,64.26,27.07,66.6.08.29.34,1.7.58,1.88l1.73-.02c.41,0,.78-.23.97-.59.42-.79,1.16-2.33,2.08-4.29,4.37.29,7.61,1.1,10.1,2.06.97,1.92,1.62,5.29,1.91,11.47.29,6.17.46,24.38.56,43.47-5.08,1.97-19.67,4.67-40.47-11.91-19.54-15.57-38.79-42.63-45.72-50.24.42-.68,1.02-1.5,1.6-2.27,18.68-7,28.54-32.72,23.72-50.79-1.79-6.72-3.26-16.7-17.65-24.05-9.39-4.79-20.67-4.19-41.71-2.6-11.23.85-20.83,1.37-33.11,1.64-5.45.12-11.61-.22-18.37.1-2.18.1-2.47,1.69-2.15,2.43.32.74.49.97,1.54,1.19,1.94.41,13.8.23,26.57-.12,3.22.34,7.86,1.41,8.48,15.21.65,14.44-1.3,91.7-1.3,101.92,0,9.42-.54,15.12,2.68,18.62-11.02.45-21.02,1.26-24.91,1.93-7.18,1.24-8.68,1.71-9.39,3.89-.39,1.19,3.11.93,7.49.29,3.35-.49,14.49-1.59,31.09-1.83s37.48-.12,37.48-.12c0,0,3.74-2.07,3.6-2.77-.13-.66-1.22-.48-14.87-1.25-5.72-.3-11.18-1.42-12.23-2.54-4.99-5.33-5.03-41.71-5.03-69.63s2.25-54.31,2.27-56.16c.08-5.75,1.14-7.79,1.81-8.51,2.48-.1,4.5-.19,5.82-.26,9.58-.49,28.78,3.94,36.19,22.72,7.87,19.95-.08,42.51-9.45,47.5-6.55,3.49-21.46.5-22.1.77-.64.26,0,1.76,0,1.76,0,.47.26.9.68,1.11.81.41,2.31.91,4.41,1.27,4.85,6.54,30.31,44.35,45.49,57.82,16.38,14.54,36.48,14.56,50.2,10.25,3.24-1.02,5.64-1.89,7.35-2.57.05,9.45.08,18.98.09,27.25-.17,19.09-.98,29.31-2.36,35.53-1,4.51-6.08,5.4-7.71,5.53-5.95.46-12.79,1.1-15.2,1.08-2.62-.02-3.04,2.28-3.04,2.28-1.77,1.76,4.24,1.03,11.95.71,3.43-.14,11.03-.45,23.09-.73,6.26-.15,13.57.15,19.73.27,10.16.2,19.91.19,20.84-.46,2.92-2.03,1.08-2.11.91-2.03-.45-.4-.72-.42-17.21-1.05-1.64-.06-5.77-.36-9.65-1.6-1.51-.48-3.26-3.67-4.5-8.17-2.08-12.52-1.64-37.63-1.64-58.39s.57-49.4.79-59.05c4.89-1.72,11.33-2.07,13.55-2.18,9.58-.46,28.54,1.45,33.25,20.16,4.71,18.71-3.39,36.73-12.64,41.68-9.25,4.95-27.18.79-27.18.79,0,0-.9.35-.84,1.23.05.88,1.56,1.65,1.56,1.65,0,0,4.66,1.23,10.83,1.76,4.17,5.78,27.71,43.31,43.41,55.81,16.3,12.98,36.64,11.83,53.8,11.25,17.17-.58,23.8-4.76,23.8-4.76,0,0,2.82-4.06-.87-2.31ZM205.6,5.71c3.15.39,9.35,2.41,8.46,19.69-.32,6.27-5.73,19.37-12.93,34.3-.38-.14-.74-.45-1.06-.86-4.43-12.01-7.46-23.48-7.46-32.46,0-22.64,10.65-20.96,12.99-20.67Zm-34.3,139.24c-1.94.13-4.95-.04-8.58-.05,1.66-3.52,3.64-7.72,5.48-11.4,6.52-11.21,16.53-28.71,26.22-46.84.25-.09.5-.16.74-.18,11.45,23.58,25.23,45.61,31.8,55.73-17.66-2.98-47.2,2.16-55.65,2.74Z"/>
    </g>
  </g>
</svg>